<?xml version="1.0" encoding="utf-8"?>
<!-- Generator: Adobe Illustrator 25.0.0, SVG Export Plug-In . SVG Version: 6.00 Build 0)  -->
<svg version="1.1" id="Layer_1" xmlns="http://www.w3.org/2000/svg" xmlns:xlink="http://www.w3.org/1999/xlink" x="0px" y="0px"
	 viewBox="0 0 1030.04 1038.7" style="enable-background:new 0 0 1030.04 1038.7;" xml:space="preserve">
<style type="text/css">
	.st0{fill:#0D73B6;}
	.st1{fill:#0B547C;}
	.st2{fill:none;stroke:#FFFFFF;stroke-width:20;stroke-miterlimit:10;}
</style>
<g>
	<rect x="-1231.03" y="1094.37" class="st0" width="91.13" height="360.74"/>
	<polygon class="st0" points="-1139.9,1709.05 -1139.9,2157.6 -1231.03,2157.6 -1231.03,1797.34 	"/>
	<rect x="-1100.03" y="1094.37" class="st0" width="91.13" height="360.74"/>
	<polygon class="st0" points="-1008.9,1582.08 -1008.9,2157.6 -1100.03,2157.6 -1100.03,1670.37 	"/>
	<rect x="-969.03" y="1094.37" class="st0" width="91.13" height="360.74"/>
	<polygon class="st0" points="-877.89,1455.11 -877.89,2157.6 -969.03,2157.6 -969.03,1543.4 	"/>
	<path class="st0" d="M-175.4,1371.57v786.03h-345.55v-588.57c0,0,15.19-151.89-337.95-129.11l364.54-345.55
		C-494.37,1094.37-255.14,1056.4-175.4,1371.57z"/>
</g>
<g>
	<path class="st1" d="M482.66,70.38h399.86c70.67,0,127.96,57.29,127.96,127.96v337.53c0,17.1-20.67,25.66-32.77,13.57l-89.57-89.57
		c-3.6-3.6-8.48-5.62-13.57-5.62H482.66c-10.6,0-19.19-8.59-19.19-19.19V89.57C463.46,78.97,472.06,70.38,482.66,70.38L482.66,70.38
		z"/>
	<path class="st0" d="M556.23,0H156.37C85.7,0,28.41,57.29,28.41,127.96v337.53c0,17.1,20.67,25.66,32.77,13.57l89.57-89.57
		c3.6-3.6,8.48-5.62,13.57-5.62h391.91c10.6,0,19.19-8.59,19.19-19.19V19.19C575.42,8.59,566.83,0,556.23,0L556.23,0z"/>
	<circle class="st0" cx="219.12" cy="712.51" r="142.35"/>
	<path class="st0" d="M438.25,1038.7H0c0-90.99,98.1-164.65,219.12-164.65S438.25,947.71,438.25,1038.7z"/>
	<circle class="st0" cx="810.92" cy="712.51" r="142.35"/>
	<path class="st0" d="M1030.04,1038.7H591.8c0-90.99,98.1-164.65,219.12-164.65S1030.04,947.71,1030.04,1038.7z"/>
</g>
<circle class="st1" cx="2257.26" cy="555.86" r="73.29"/>
<path class="st1" d="M2370.07,723.8h-225.62c0-46.84,50.5-84.77,112.81-84.77C2319.57,639.03,2370.07,676.95,2370.07,723.8z"/>
<circle class="st1" cx="2561.93" cy="555.86" r="73.29"/>
<path class="st1" d="M2674.74,723.8h-225.62c0-46.84,50.5-84.77,112.81-84.77C2624.24,639.03,2674.74,676.95,2674.74,723.8z"/>
<circle class="st0" cx="2409.6" cy="634.09" r="73.29"/>
<path class="st0" d="M2522.41,802.02h-225.62c0-46.84,50.5-84.77,112.81-84.77S2522.41,755.18,2522.41,802.02z"/>
<circle class="st0" cx="2197.38" cy="-355.73" r="157.68"/>
<polyline class="st2" points="2268.94,-423.41 2206.5,-288.05 2125.82,-325.26 "/>
<g>
</g>
<g>
</g>
<g>
</g>
<g>
</g>
<g>
</g>
<g>
</g>
</svg>
