<?xml version="1.0" encoding="utf-8"?>
<!-- Generator: Adobe Illustrator 25.0.0, SVG Export Plug-In . SVG Version: 6.00 Build 0)  -->
<svg version="1.1" id="Layer_1" xmlns="http://www.w3.org/2000/svg" xmlns:xlink="http://www.w3.org/1999/xlink" x="0px" y="0px"
	 viewBox="0 0 1048.05 631.34" style="enable-background:new 0 0 1048.05 631.34;" xml:space="preserve">
<style type="text/css">
	.st0{fill:#0D73B6;}
	.st1{fill:#0B547C;}
	.st2{fill:none;stroke:#FFFFFF;stroke-width:20;stroke-miterlimit:10;}
</style>
<g>
	<rect x="-1222.03" y="890.69" class="st0" width="91.13" height="360.74"/>
	<polygon class="st0" points="-1130.9,1505.37 -1130.9,1953.92 -1222.03,1953.92 -1222.03,1593.66 	"/>
	<rect x="-1091.03" y="890.69" class="st0" width="91.13" height="360.74"/>
	<polygon class="st0" points="-999.89,1378.4 -999.89,1953.92 -1091.03,1953.92 -1091.03,1466.69 	"/>
	<rect x="-960.02" y="890.69" class="st0" width="91.13" height="360.74"/>
	<polygon class="st0" points="-868.89,1251.43 -868.89,1953.92 -960.02,1953.92 -960.02,1339.72 	"/>
	<path class="st0" d="M-166.4,1167.89v786.03h-345.55v-588.57c0,0,15.19-151.89-337.95-129.11l364.54-345.55
		C-485.37,890.69-246.14,852.72-166.4,1167.89z"/>
</g>
<g>
	<path class="st1" d="M1351.34,1123.82h399.86c70.67,0,127.96,57.29,127.96,127.96v337.53c0,17.1-20.67,25.66-32.77,13.57
		l-89.57-89.57c-3.6-3.6-8.48-5.62-13.57-5.62h-391.91c-10.6,0-19.19-8.59-19.19-19.19v-345.48
		C1332.15,1132.41,1340.74,1123.82,1351.34,1123.82L1351.34,1123.82z"/>
	<path class="st0" d="M1424.91,1053.44h-399.86c-70.67,0-127.96,57.29-127.96,127.96v337.53c0,17.1,20.67,25.66,32.77,13.57
		l89.57-89.57c3.6-3.6,8.48-5.62,13.57-5.62h391.91c10.6,0,19.19-8.59,19.19-19.19v-345.48
		C1444.11,1062.03,1435.51,1053.44,1424.91,1053.44L1424.91,1053.44z"/>
	<circle class="st0" cx="1087.81" cy="1765.95" r="142.35"/>
	<path class="st0" d="M1306.93,2092.14H868.68c0-90.99,98.1-164.65,219.12-164.65S1306.93,2001.15,1306.93,2092.14z"/>
	<circle class="st0" cx="1679.6" cy="1765.95" r="142.35"/>
	<path class="st0" d="M1898.73,2092.14h-438.25c0-90.99,98.1-164.65,219.12-164.65S1898.73,2001.15,1898.73,2092.14z"/>
</g>
<g>
	<circle class="st1" cx="222.95" cy="144.84" r="144.84"/>
	<path class="st1" d="M445.91,476.74H0c0-92.58,99.81-167.53,222.95-167.53S445.91,384.16,445.91,476.74z"/>
	<circle class="st1" cx="825.1" cy="144.84" r="144.84"/>
	<path class="st1" d="M1048.05,476.74H602.14c0-92.58,99.81-167.53,222.95-167.53S1048.05,384.16,1048.05,476.74z"/>
	<circle class="st0" cx="524.03" cy="299.44" r="144.84"/>
	<path class="st0" d="M746.98,631.34H301.07c0-92.58,99.81-167.53,222.95-167.53S746.98,538.76,746.98,631.34z"/>
</g>
<circle class="st0" cx="2206.39" cy="-559.41" r="157.68"/>
<polyline class="st2" points="2277.94,-627.09 2215.5,-491.73 2134.83,-528.94 "/>
<g>
</g>
<g>
</g>
<g>
</g>
<g>
</g>
<g>
</g>
<g>
</g>
</svg>
