<?xml version="1.0" encoding="utf-8"?>
<!-- Generator: Adobe Illustrator 25.0.0, SVG Export Plug-In . SVG Version: 6.00 Build 0)  -->
<svg version="1.1" id="Layer_1" xmlns="http://www.w3.org/2000/svg" xmlns:xlink="http://www.w3.org/1999/xlink" x="0px" y="0px"
	 viewBox="0 0 896.11 778.16" style="enable-background:new 0 0 896.11 778.16;" xml:space="preserve">
<style type="text/css">
	.st0{fill:#0D72B6;}
</style>
<g>
	<g>
		<path d="M618.82,683.26c30.15-13.21,52.93-9.34,65.9,10.25c13.08,19.75,10.21,55.42-5.74,71.3
			c-16.35,16.28-37.79,15.58-62.09-0.77c-9.8,3.83-18.14,7.66-26.88,10.12c-2.34,0.66-6.65-2.28-8.48-4.74
			c-0.83-1.12,2.28-5.05,3.43-7.77c2.3-5.46,6.28-10.93,6.42-16.47c0.66-27.78,0.75-55.6,0.01-83.38
			c-0.2-7.61-3.24-15.45-6.36-22.58c-3.41-7.79-2.96-11.92,6.42-13.09c20.69-2.58,27.3,3.12,27.37,24.28
			C618.85,661.14,618.82,671.88,618.82,683.26z M664.49,727.01c-2.08-8.32-2.78-18.78-7.43-27.03
			c-3.03-5.38-11.76-10.29-17.98-10.34c-5.57-0.04-13.97,5.64-16.28,10.92c-8.15,18.64-4.39,37.57,5.46,54.53
			c2.65,4.57,11.5,8.35,16.92,7.7c5.3-0.64,11.68-6.48,14.3-11.69C662.79,744.55,662.75,736.32,664.49,727.01z"/>
		<path d="M278.72,778.16c-11.47-2.59-23.17-4.49-34.32-8.07c-5.27-1.69-11.21-5.68-13.74-10.32c-2.56-4.7-3.28-12.54-0.95-16.98
			c1.43-2.74,10.55-3.29,15.38-1.91c5.34,1.53,9.32,7.31,14.6,9.6c8.92,3.86,18.38,8.64,27.66,8.72
			c5.51,0.05,13.67-7.08,16.05-12.87c3.6-8.74-4.24-13.88-11.92-16.78c-12.32-4.66-25.03-8.38-37.12-13.55
			c-19.19-8.19-25.85-19.63-24.47-39.41c0.94-13.39,7.39-23.54,19.27-29.3c21.19-10.29,43.15-10.07,64.86-1.72
			c4.79,1.84,10.64,5.79,12.14,10.11c1.9,5.48,1.57,13.32-1.24,18.16c-1.31,2.26-11.12,1.06-16.26-0.81
			c-4.34-1.58-7.37-6.56-11.23-9.72c-9.31-7.63-20.09-9.83-30.47-3.88c-4.68,2.68-9.15,9.23-9.73,14.47
			c-0.5,4.52,3.45,11.99,7.52,14.08c10.81,5.55,22.67,9.12,34.25,13.09c25.95,8.91,35.92,20.34,33.89,39.37
			c-2.18,20.43-15.94,32.33-41.55,35.71c-4.05,0.53-8.18,0.48-12.27,0.69C278.96,777.26,278.84,777.71,278.72,778.16z"/>
		<path d="M174.95,757.32c-10.7,12.87-22.39,23.19-40.74,17.79c-14.12-4.15-21.52-12.7-22.13-27.32
			c-0.44-10.47,0.84-21.1-0.51-31.41c-1.23-9.4-4.22-18.78-7.85-27.59c-2.49-6.07-2.32-8.96,4.16-11.32
			c16.62-6.05,30.68,2.98,30.96,20.35c0.23,14.13-0.82,28.39,0.92,42.32c0.75,6.01,6.26,14.82,11.12,15.97
			c4.77,1.13,14.35-4.45,16.79-9.51c9.11-18.91,17.3-38.79,1.09-58.59c-0.82-1.01-1.37-2.41-1.58-3.7c-0.21-1.3,0.15-2.69,0.26-3.99
			c24.57-10.59,37.14-2.82,37.17,22.87c0.02,12.76-0.63,25.58,0.36,38.27c0.52,6.69,3.2,13.52,6.21,19.65
			c3.88,7.89,2.47,11.94-6.35,13.36C188.68,777.07,182.61,773.81,174.95,757.32z"/>
		<path d="M533.22,758.72c-7.71,5.61-13.98,12.07-21.61,15.36c-18.64,8.04-37.93-2.42-41.05-22.46
			c-2.02-12.94-0.65-26.37-2.08-39.44c-0.84-7.65-3.37-15.41-6.64-22.43c-3.41-7.32-2.27-10.83,5.57-12.88
			c17.82-4.65,28.09,3.05,28.38,21.52c0.22,14.12-0.53,28.39,1.45,42.27c0.85,5.97,7.4,15.48,11.55,15.58
			c5.82,0.14,14.39-5.68,17.26-11.27c9.29-18.1,14.57-37.09,0.93-56.23c-3.88-5.45-1.99-10.2,5.26-12.16
			c17.82-4.82,29.15,3.7,29.26,22.38c0.08,13.23-0.78,26.52,0.33,39.65c0.64,7.63,3.37,15.5,6.9,22.37
			c3.98,7.75,3.51,11.72-5.63,13.23C546.27,776.97,540.26,773.88,533.22,758.72z"/>
		<path d="M447.91,763.97c-9.38,15.22-20.67,15.46-36.62,0.46c-13.47,10.94-28.47,15.83-45.6,9.44
			c-10.16-3.79-18.63-11.09-17.18-21.89c1.12-8.38,6.16-19.08,12.87-23.21c10.83-6.67,24.57-8.5,36.85-13
			c4.11-1.5,10.82-5.19,10.63-7.39c-0.58-6.75-2.53-14.48-6.79-19.34c-2.16-2.46-11.18-1.06-15.72,1.27
			c-4.97,2.55-8.02,8.58-12.5,12.4c-6.28,5.35-14.6,6.95-18.77-0.61c-2.07-3.76,1.01-13.34,4.88-16.85
			c13.82-12.54,47.5-13.67,63.36-3.66c10.46,6.6,13.18,16.99,13.6,28.25c0.39,10.47-0.7,21.06,0.43,31.42
			c0.83,7.59,4.19,14.91,6.42,22.34C445.14,763.72,446.52,763.84,447.91,763.97z M409.8,724.98c-9.88,3.29-18.25,4.05-23.6,8.47
			c-4.6,3.8-8.1,11.97-7.6,17.82c0.32,3.69,9.41,9.86,13.65,9.19c5.86-0.93,12.96-6.21,15.67-11.57
			C410.82,743.14,409.25,735.13,409.8,724.98z"/>
		<path d="M743.41,743.31c5.92,14.72,17.4,17.19,28.58,13.82c10.12-3.05,18.95-10.4,28.34-15.86c1.12,0.9,2.25,1.8,3.37,2.7
			c-4.95,7.49-8.78,16.15-15.1,22.23c-13.34,12.84-41.16,13.85-57.66,3.56c-19.11-11.92-27.61-34.59-21.87-58.33
			c4.67-19.3,22.09-35.79,41.54-35.48c12.56,0.2,26.78,2.46,37.15,8.84c17.73,10.9,15.32,28.63-3.18,38.16
			C771.33,729.79,757.86,736.19,743.41,743.31z M733.86,729.11c12.5-5.39,21.91-8.78,30.66-13.41c9.46-5,10.87-13.16,2.58-19.53
			c-5.12-3.93-13.72-7.09-19.36-5.54c-5.55,1.53-11.17,8.78-13.37,14.77C732.08,711.62,733.86,719.32,733.86,729.11z"/>
		<path d="M52.27,690.2c-14.44-1.73-24.61-2.8-33.9,5.85c-2.81,2.62-9.39,2.96-13.51,1.78c-2.47-0.71-5.62-7.17-4.7-9.66
			c1.46-3.96,5.99-9.51,9.37-9.61c26.61-0.78,53.26-0.44,81.45-0.44c-18.1,28.39-35.13,55.11-52.16,81.82
			c1.15,1.62,2.29,3.24,3.44,4.85c8.94-2.98,17.77-6.37,26.86-8.81c5.75-1.54,12.01-2.56,17.78-1.82c1.62,0.21,4.52,9.52,3.05,11.07
			c-3.87,4.08-9.72,8.44-14.97,8.67c-21.87,0.98-43.8,0.6-65.7,0.39c-2.85-0.03-5.69-2-8.53-3.08c1.31-3.03,2.22-6.33,4.01-9.05
			C20.08,738.77,35.55,715.48,52.27,690.2z"/>
		<path d="M811.94,682.86c19.53-11.74,33.02-7.44,38.5,10.9c7.64-12.35,16.7-21.22,32.33-18.27c9.09,1.72,13.99,6.6,13.27,15.83
			c-0.78,9.92-7.49,12.68-16.39,11.98c-0.91-0.07-1.82-0.18-2.72-0.31c-22.52-3.16-26.17-0.74-25.53,22.11
			c0.38,13.26-6.23,28.44,7.49,39.66c0.72,0.59-2.32,8.6-3.9,8.7c-11.73,0.79-23.65,1.41-35.29,0.09c-6.81-0.77-8.05-5.51-2.66-11.7
			c3.47-3.99,5.23-9.89,6.51-15.23c1.04-4.31,0.38-9.07,0.2-13.63C823.09,715.66,828.44,697.15,811.94,682.86z"/>
	</g>
	<path class="st0" d="M447.56,156.39c23.47-36.67-8.03-83.94-50.84-76.02c-24.76,4.58-49.86,12.65-69.95,26.48
		c-43.08,29.66-77.59,21.03-94.68,12.97c-8.44-3.98-15.57-10.29-20.57-18.17c-10.07-15.9-20.85-47.12,14.75-82.77
		c0.97-0.97,1.9-1.96,2.8-3c4.11-4.75,25.85-23.8,103.49-12.18c2.51,0.38,5.05,0.58,7.59,0.58l260.52,0
		c47.67,0,68.1,60.29,30.41,89.48c-1.16,0.9-2.35,1.8-3.55,2.69c-4.78,3.53-8.91,7.88-12.19,12.83L416.17,409.57
		c-22.21,33.49,2.25,78.15,42.43,77.48c15.02-0.25,26.37-0.48,28.46-0.64c7.18-0.54,28.66-6.78,36.17-10.22s24.98-13.51,32.33-17.86
		s54.31-35.68,98.89-13.33s58.86,75.84,6,102.13c-25.93,12.89-49.83,18.59-88.39,22.99c-1.94,0.22-3.9,0.33-5.85,0.32l-304.91-1.34
		c-3.02-0.01-6.04-0.29-9.01-0.86c-12.87-2.45-46.03-10.77-46.49-31.4c-0.57-25.6,26.87-40.23,30.52-48.46
		C238.95,482.5,371.93,274.52,447.56,156.39z"/>
</g>
</svg>
